<svg data-v-423bf9ae="" xmlns="http://www.w3.org/2000/svg" viewBox="0 0 189.33139534883722 60" class="font"><!----><!----><!----><g data-v-423bf9ae="" id="10ac9423-16b1-442d-b741-0c0b98f233bc" fill="black" transform="matrix(5.581395149230957,0,0,5.581395149230957,2.354651927947998,-29.302324295043945)"><path d="M1.13 8.93L1.13 8.93L1.13 8.93Q0.56 8.70 0.18 8.27L0.18 8.27L0.18 8.27Q-0.19 7.85-0.42 7.27L-0.42 7.27L-0.42 7.27Q-0.29 6.90 0.01 6.65L0.01 6.65L0.01 6.65Q0.31 6.40 0.69 6.22L0.69 6.22L0.69 6.22Q1.07 6.04 1.49 5.93L1.49 5.93L1.49 5.93Q1.91 5.82 2.31 5.74L2.31 5.74L2.31 5.74Q2.39 5.77 2.39 5.74L2.39 5.74L2.39 5.74Q2.39 5.71 2.46 5.77L2.46 5.77L2.46 5.77Q2.95 5.62 3.60 5.48L3.60 5.48L3.60 5.48Q4.24 5.33 4.96 5.37L4.96 5.37L4.96 5.37Q5.06 5.32 5.20 5.31L5.20 5.31L5.20 5.31Q5.33 5.30 5.48 5.30L5.48 5.30L5.48 5.30Q5.63 5.30 5.77 5.30L5.77 5.30L5.77 5.30Q5.91 5.29 6.00 5.25L6.00 5.25L6.00 5.25Q6.08 5.35 6.25 5.37L6.25 5.37L6.25 5.37Q6.41 5.39 6.59 5.51L6.59 5.51L6.59 5.51Q6.64 5.52 6.59 5.46L6.59 5.46L6.59 5.46Q6.54 5.40 6.60 5.37L6.60 5.37L6.60 5.37Q6.78 5.37 6.92 5.46L6.92 5.46L6.92 5.46Q7.05 5.54 7.17 5.64L7.17 5.64L7.17 5.64Q7.29 5.74 7.39 5.82L7.39 5.82L7.39 5.82Q7.49 5.91 7.62 5.91L7.62 5.91L7.62 5.91Q7.74 6.06 7.91 6.19L7.91 6.19L7.91 6.19Q8.08 6.32 8.24 6.45L8.24 6.45L8.24 6.45Q8.39 6.59 8.50 6.75L8.50 6.75L8.50 6.75Q8.60 6.92 8.60 7.12L8.60 7.12L8.60 7.12Q8.59 7.21 8.65 7.22L8.65 7.22L8.65 7.22Q8.72 7.23 8.75 7.30L8.75 7.30L8.75 7.30Q8.76 7.81 8.59 8.18L8.59 8.18L8.59 8.18Q8.42 8.54 8.16 8.85L8.16 8.85L8.16 8.85Q7.90 9.16 7.61 9.43L7.61 9.43L7.61 9.43Q7.31 9.71 7.07 10.02L7.07 10.02L7.07 10.02Q7.23 10.23 7.44 10.40L7.44 10.40L7.44 10.40Q7.66 10.57 7.88 10.73L7.88 10.73L7.88 10.73Q8.09 10.90 8.29 11.08L8.29 11.08L8.29 11.08Q8.49 11.27 8.63 11.50L8.63 11.50L8.63 11.50Q8.67 11.58 8.80 11.61L8.80 11.61L8.80 11.61Q8.85 11.77 8.92 11.94L8.92 11.94L8.92 11.94Q9.00 12.11 9.06 12.27L9.06 12.27L9.06 12.27Q9.13 12.43 9.15 12.55L9.15 12.55L9.15 12.55Q9.16 12.67 9.08 12.76L9.08 12.76L9.08 12.76Q9.17 12.81 9.19 12.93L9.19 12.93L9.19 12.93Q9.20 13.04 9.19 13.11L9.19 13.11L9.19 13.11Q8.89 13.48 8.78 13.63L8.78 13.63L8.78 13.63Q8.67 13.78 8.61 13.85L8.61 13.85L8.61 13.85Q8.56 13.92 8.50 13.97L8.50 13.97L8.50 13.97Q8.45 14.03 8.26 14.19L8.26 14.19L8.26 14.19Q7.53 14.63 6.75 14.98L6.75 14.98L6.75 14.98Q5.96 15.33 5.11 15.45L5.11 15.45L5.11 15.45Q5.04 15.54 4.92 15.61L4.92 15.61L4.92 15.61Q4.79 15.67 4.62 15.71L4.62 15.71L4.62 15.71Q4.46 15.75 4.27 15.78L4.27 15.78L4.27 15.78Q4.09 15.80 3.94 15.83L3.94 15.83L3.94 15.83Q3.87 15.80 3.86 15.74L3.86 15.74L3.86 15.74Q3.86 15.68 3.79 15.65L3.79 15.65L3.79 15.65Q3.77 15.82 3.64 15.83L3.64 15.83L3.64 15.83Q3.51 15.83 3.32 15.76L3.32 15.76L3.32 15.76Q3.13 15.70 2.93 15.57L2.93 15.57L2.93 15.57Q2.72 15.45 2.57 15.34L2.57 15.34L2.57 15.34Q2.50 15.46 2.40 15.60L2.40 15.60L2.40 15.60Q2.30 15.74 2.19 15.79L2.19 15.79L2.19 15.79Q2.00 15.76 1.91 15.75L1.91 15.75L1.91 15.75Q1.82 15.74 1.74 15.82L1.74 15.82L1.74 15.82Q1.63 15.76 1.57 15.70L1.57 15.70L1.57 15.70Q1.52 15.64 1.46 15.58L1.46 15.58L1.46 15.58Q1.41 15.52 1.34 15.47L1.34 15.47L1.34 15.47Q1.27 15.42 1.13 15.38L1.13 15.38L1.13 15.38Q1.16 15.31 1.09 15.17L1.09 15.17L1.09 15.17Q1.03 15.03 0.90 15.00L0.90 15.00L0.90 15.00Q0.97 14.89 0.85 14.72L0.85 14.72L0.85 14.72Q0.72 14.55 0.66 14.33L0.66 14.33L0.66 14.33Q0.67 14.23 0.68 14.13L0.68 14.13L0.68 14.13Q0.68 14.03 0.70 13.94L0.70 13.94L0.70 13.94Q0.72 13.85 0.77 13.78L0.77 13.78L0.77 13.78Q0.81 13.71 0.90 13.69L0.90 13.69L0.90 13.69Q0.89 13.51 0.79 13.34L0.79 13.34L0.79 13.34Q0.92 13.25 0.96 13.10L0.96 13.10L0.96 13.10Q1.00 12.96 1.03 12.81L1.03 12.81L1.03 12.81Q1.07 12.66 1.12 12.52L1.12 12.52L1.12 12.52Q1.18 12.37 1.30 12.28L1.30 12.28L1.30 12.28Q1.27 12.24 1.24 12.21L1.24 12.21L1.24 12.21Q1.22 12.18 1.22 12.11L1.22 12.11L1.22 12.11Q1.42 11.77 1.50 11.53L1.50 11.53L1.50 11.53Q1.59 11.29 1.63 11.07L1.63 11.07L1.63 11.07Q1.68 10.84 1.74 10.58L1.74 10.58L1.74 10.58Q1.79 10.32 1.96 9.93L1.96 9.93L1.96 9.93Q1.94 9.68 2.01 9.49L2.01 9.49L2.01 9.49Q2.08 9.30 2.15 9.11L2.15 9.11L2.15 9.11Q2.23 8.93 2.27 8.72L2.27 8.72L2.27 8.72Q2.31 8.52 2.26 8.24L2.26 8.24L2.26 8.24Q2.02 8.27 1.92 8.41L1.92 8.41L1.92 8.41Q1.82 8.54 1.79 8.78L1.79 8.78L1.79 8.78Q1.67 8.89 1.48 8.88L1.48 8.88L1.48 8.88Q1.29 8.87 1.13 8.93ZM7.15 11.57L7.15 11.57L7.15 11.57Q6.63 11.28 6.20 11.22L6.20 11.22L6.20 11.22Q5.77 11.17 5.38 11.23L5.38 11.23L5.38 11.23Q4.99 11.29 4.63 11.40L4.63 11.40L4.63 11.40Q4.28 11.51 3.92 11.57L3.92 11.57L3.92 11.57Q3.75 12.03 3.55 12.59L3.55 12.59L3.55 12.59Q3.36 13.15 3.19 13.69L3.19 13.69L3.19 13.69Q3.68 13.62 4.09 13.48L4.09 13.48L4.09 13.48Q4.50 13.34 4.88 13.17L4.88 13.17L4.88 13.17Q5.26 13.00 5.63 12.83L5.63 12.83L5.63 12.83Q6.00 12.66 6.40 12.51L6.40 12.51L6.40 12.51Q6.44 12.35 6.58 12.25L6.58 12.25L6.58 12.25Q6.71 12.15 6.85 12.07L6.85 12.07L6.85 12.07Q6.99 11.98 7.08 11.87L7.08 11.87L7.08 11.87Q7.18 11.76 7.15 11.57ZM6.19 7.29L6.19 7.29L6.19 7.29Q5.35 7.26 4.53 7.44L4.53 7.44L4.53 7.44Q3.71 7.62 3.14 7.96L3.14 7.96L3.14 7.96Q3.42 8.19 3.71 8.37L3.71 8.37L3.71 8.37Q4.01 8.54 4.16 8.85L4.16 8.85L4.16 8.85Q4.81 8.59 5.30 8.18L5.30 8.18L5.30 8.18Q5.80 7.78 6.19 7.29ZM13.49 11.74L13.43 11.95L13.43 11.95Q13.33 12.03 13.26 12.15L13.26 12.15L13.26 12.15Q13.19 12.26 13.13 12.39L13.13 12.39L13.13 12.39Q13.06 12.54 12.97 12.67L12.97 12.67L12.97 12.67Q12.89 12.81 12.77 12.92L12.77 12.92L12.77 12.92Q12.70 13.13 12.63 13.24L12.63 13.24L12.63 13.24Q12.56 13.36 12.41 13.51L12.41 13.51L12.41 13.51Q12.28 14.05 11.77 14.70L11.77 14.70L11.77 14.70Q11.76 14.82 11.70 14.94L11.70 14.94L11.70 14.94Q11.63 15.05 11.57 15.16L11.57 15.16L11.57 15.16Q11.54 15.20 11.51 15.25L11.51 15.25L11.51 15.25Q11.48 15.30 11.47 15.33L11.47 15.33L11.44 15.46L11.44 15.46Q11.38 15.57 11.29 15.65L11.29 15.65L11.29 15.65Q11.21 15.74 11.14 15.80L11.14 15.80L11.14 15.80Q11.12 15.85 11.05 15.91L11.05 15.91L10.84 16.00L10.84 16.00Q9.84 15.86 9.63 14.93L9.63 14.93L9.64 14.79L9.64 14.79Q9.67 14.72 9.69 14.65L9.69 14.65L9.69 14.65Q9.71 14.57 9.73 14.49L9.73 14.49L9.73 14.49Q9.79 14.30 9.86 14.11L9.86 14.11L9.86 14.11Q9.94 13.92 10.09 13.77L10.09 13.77L10.09 13.77Q10.12 13.67 10.21 13.46L10.21 13.46L10.21 13.46Q10.31 13.25 10.54 12.82L10.54 12.82L10.54 12.82Q10.73 12.50 10.84 12.30L10.84 12.30L10.84 12.30Q10.95 12.11 11.02 12.00L11.02 12.00L11.02 12.00Q10.88 11.79 10.69 11.61L10.69 11.61L10.69 11.61Q10.51 11.27 10.38 10.95L10.38 10.95L10.38 10.95Q10.25 10.64 10.19 10.39L10.19 10.39L10.19 10.39Q10.17 10.21 10.14 10.09L10.14 10.09L10.14 10.09Q10.12 9.97 10.09 9.83L10.09 9.83L10.09 9.83Q10.05 9.68 10.02 9.53L10.02 9.53L10.02 9.53Q9.99 9.38 9.99 9.21L9.99 9.21L9.99 9.21Q9.93 9.12 9.91 9.02L9.91 9.02L9.94 8.89L9.94 8.89Q9.98 8.79 9.95 8.63L9.95 8.63L9.95 8.63Q9.93 8.48 9.88 8.31L9.88 8.31L9.88 8.31Q9.86 8.18 9.82 8.01L9.82 8.01L9.82 8.01Q9.79 7.85 9.80 7.68L9.80 7.68L9.80 7.68Q9.82 7.52 9.89 7.38L9.89 7.38L9.89 7.38Q9.97 7.23 10.14 7.12L10.14 7.12L10.38 7.11L10.38 7.11Q10.50 7.18 10.62 7.24L10.62 7.24L10.62 7.24Q10.73 7.30 10.84 7.37L10.84 7.37L10.84 7.37Q10.99 7.44 11.13 7.51L11.13 7.51L11.13 7.51Q11.27 7.57 11.42 7.68L11.42 7.68L11.51 7.88L11.69 8.03L11.69 8.18L11.69 8.18Q11.70 8.23 11.70 8.33L11.70 8.33L11.70 8.33Q11.70 8.50 11.76 8.54L11.76 8.54L11.81 8.71L11.81 8.71Q11.81 8.90 11.85 9.07L11.85 9.07L11.85 9.07Q11.89 9.24 11.94 9.39L11.94 9.39L11.94 9.39Q11.98 9.54 12.02 9.71L12.02 9.71L12.02 9.71Q12.06 9.87 12.03 10.06L12.03 10.06L12.03 10.06Q12.11 10.02 12.17 9.97L12.17 9.97L12.17 9.97Q12.20 9.94 12.22 9.93L12.22 9.93L12.22 9.93Q12.25 9.91 12.28 9.88L12.28 9.88L13.08 8.79L13.06 8.65L13.34 8.38L13.34 8.38Q13.45 8.27 13.56 8.18L13.56 8.18L13.56 8.18Q13.66 8.08 13.73 7.97L13.73 7.97L13.88 7.86L13.88 7.86Q14.31 7.18 15.12 7.01L15.12 7.01L15.31 6.99L15.37 7.16L15.37 7.16Q15.42 7.31 15.59 7.44L15.59 7.44L15.59 7.44Q15.76 7.56 15.96 7.67L15.96 7.67L16.08 7.75L16.08 7.75Q16.15 7.89 16.15 7.96L16.15 7.96L16.15 7.96Q16.15 8.03 16.13 8.08L16.13 8.08L16.19 8.22L16.19 8.22Q16.08 8.54 15.92 8.70L15.92 8.70L15.92 8.70Q15.76 8.85 15.61 8.97L15.61 8.97L15.61 8.97Q15.49 9.08 15.39 9.17L15.39 9.17L15.39 9.17Q15.29 9.26 15.23 9.39L15.23 9.39L15.13 9.50L15.13 9.50Q14.85 9.67 14.77 9.94L14.77 9.94L14.72 10.10L14.56 10.10L14.56 10.10Q14.55 10.10 14.50 10.15L14.50 10.15L14.50 10.15Q14.45 10.20 14.36 10.39L14.36 10.39L14.36 10.39Q14.26 10.53 14.22 10.57L14.22 10.57L14.22 10.57Q14.18 10.61 14.15 10.64L14.15 10.64L14.15 10.64Q14.14 10.69 14.12 10.74L14.12 10.74L14.12 10.74Q14.10 10.79 14.07 10.86L14.07 10.86L14.07 10.86Q13.89 11.03 13.85 11.12L13.85 11.12L13.85 11.12Q13.81 11.21 13.75 11.32L13.75 11.32L13.75 11.32Q13.70 11.43 13.65 11.53L13.65 11.53L13.65 11.53Q13.60 11.63 13.49 11.74L13.49 11.74ZM22.44 8.96L22.44 8.96L22.44 8.96Q22.09 8.96 21.70 9.00L21.70 9.00L21.70 9.00Q21.30 9.05 20.92 9.11L20.92 9.11L20.92 9.11Q20.64 9.15 20.39 9.17L20.39 9.17L20.39 9.17Q20.14 9.20 19.93 9.21L19.93 9.21L19.93 9.21Q19.84 9.52 19.74 9.75L19.74 9.75L19.74 9.75Q19.65 9.98 19.54 10.20L19.54 10.20L19.54 10.20Q19.43 10.43 19.34 10.67L19.34 10.67L19.34 10.67Q19.25 10.91 19.17 11.18L19.17 11.18L19.17 11.18Q19.03 11.40 18.94 11.59L18.94 11.59L18.94 11.59Q18.85 11.77 18.80 12.00L18.80 12.00L18.80 12.00Q18.63 12.21 18.55 12.43L18.55 12.43L18.55 12.43Q18.47 12.66 18.43 12.82L18.43 12.82L18.38 12.99L18.38 12.99Q18.29 13.07 18.28 13.12L18.28 13.12L18.28 13.12Q18.27 13.17 18.21 13.21L18.21 13.21L18.21 13.21Q18.20 13.36 18.12 13.51L18.12 13.51L18.12 13.51Q18.09 13.58 18.07 13.64L18.07 13.64L18.07 13.64Q18.06 13.70 18.06 13.73L18.06 13.73L18.06 13.73Q18.06 13.86 17.99 13.90L17.99 13.90L17.99 13.90Q18.01 13.97 17.99 14.05L17.99 14.05L17.99 14.05Q17.98 14.12 17.96 14.19L17.96 14.19L17.96 14.19Q17.92 14.36 17.94 14.45L17.94 14.45L17.94 14.45Q17.98 14.51 18.01 14.55L18.01 14.55L18.01 14.55Q18.05 14.59 18.06 14.66L18.06 14.66L18.06 14.66Q18.14 14.71 18.18 14.72L18.18 14.72L18.18 14.72Q18.24 14.77 18.35 14.82L18.35 14.82L18.47 14.96L18.47 14.96Q18.54 15.35 18.35 15.59L18.35 15.59L18.35 15.59Q18.14 15.85 17.65 15.85L17.65 15.85L17.49 15.85L17.49 15.85Q17.42 15.78 17.40 15.74L17.40 15.74L17.40 15.74Q17.29 15.70 17.23 15.67L17.23 15.67L17.23 15.67Q17.16 15.64 17.10 15.56L17.10 15.56L17.10 15.56Q16.93 15.48 16.82 15.42L16.82 15.42L16.69 15.35L16.69 15.35Q16.69 15.20 16.69 15.19L16.69 15.19L16.69 15.19Q16.60 15.07 16.55 14.92L16.55 14.92L16.55 14.92Q16.50 14.77 16.47 14.62L16.47 14.62L16.47 14.62Q16.45 14.49 16.41 14.38L16.41 14.38L16.41 14.38Q16.38 14.27 16.32 14.19L16.32 14.19L16.32 14.19Q16.30 13.40 16.47 12.85L16.47 12.85L16.47 12.85Q16.65 12.30 16.84 11.80L16.84 11.80L16.84 11.80Q16.95 11.53 17.06 11.25L17.06 11.25L17.06 11.25Q17.17 10.96 17.25 10.66L17.25 10.66L17.38 10.53L17.38 10.53Q17.47 10.31 17.53 10.17L17.53 10.17L17.53 10.17Q17.60 10.02 17.66 9.87L17.66 9.87L17.66 9.87Q17.71 9.78 17.74 9.69L17.74 9.69L17.74 9.69Q17.77 9.60 17.80 9.53L17.80 9.53L17.80 9.53Q17.72 9.53 17.65 9.54L17.65 9.54L17.65 9.54Q17.58 9.54 17.51 9.56L17.51 9.56L17.51 9.56Q17.43 9.57 17.36 9.58L17.36 9.58L17.36 9.58Q17.29 9.58 17.23 9.58L17.23 9.58L17.23 9.58Q17.13 9.58 17.09 9.57L17.09 9.57L17.09 9.57Q16.94 9.64 16.76 9.64L16.76 9.64L16.63 9.64L16.63 9.64Q16.58 9.64 16.55 9.63L16.55 9.63L16.55 9.63Q16.52 9.63 16.49 9.63L16.49 9.63L16.49 9.63Q16.35 9.63 16.27 9.67L16.27 9.67L16.27 9.67Q16.11 9.67 15.96 9.67L15.96 9.67L15.82 9.67L15.82 9.67Q15.79 9.67 15.75 9.67L15.75 9.67L15.75 9.67Q15.71 9.68 15.68 9.68L15.68 9.68L15.68 9.68Q15.59 9.68 15.48 9.66L15.48 9.66L15.48 9.66Q15.37 9.64 15.24 9.57L15.24 9.57L15.24 9.57Q15.08 9.35 15.03 9.34L15.03 9.34L14.90 9.17L14.90 9.17Q14.89 9.09 14.86 9.02L14.86 9.02L14.86 9.02Q14.83 8.94 14.81 8.85L14.81 8.85L14.81 8.85Q14.75 8.71 14.70 8.55L14.70 8.55L14.70 8.55Q14.66 8.39 14.66 8.18L14.66 8.18L14.66 8.18Q14.67 8.07 14.71 8.01L14.71 8.01L14.71 8.01Q14.75 7.96 14.78 7.92L14.78 7.92L14.82 7.71L15.00 7.72L15.38 7.72L15.38 7.72Q15.82 7.72 16.27 7.69L16.27 7.69L16.27 7.69Q16.72 7.66 17.20 7.62L17.20 7.62L17.20 7.62Q17.47 7.59 17.75 7.56L17.75 7.56L17.75 7.56Q18.03 7.53 18.33 7.51L18.33 7.51L18.33 7.51Q18.39 7.38 18.44 7.27L18.44 7.27L18.58 7.21L18.58 7.21Q18.83 7.19 18.93 7.27L18.93 7.27L18.93 7.27Q19.03 7.34 19.10 7.41L19.10 7.41L19.10 7.41Q19.40 7.38 19.71 7.35L19.71 7.35L19.71 7.35Q20.02 7.31 20.33 7.26L20.33 7.26L20.33 7.26Q20.79 7.19 21.27 7.14L21.27 7.14L21.27 7.14Q21.74 7.08 22.18 7.08L22.18 7.08L22.18 7.08Q22.37 7.08 22.54 7.10L22.54 7.10L22.54 7.10Q22.72 7.11 22.87 7.14L22.87 7.14L23.01 7.23L23.01 7.23Q23.05 7.31 23.13 7.38L23.13 7.38L23.13 7.38Q23.20 7.45 23.28 7.52L23.28 7.52L23.28 7.52Q23.45 7.67 23.61 7.88L23.61 7.88L23.61 7.88Q23.78 8.08 23.73 8.48L23.73 8.48L23.73 8.48Q23.63 8.64 23.57 8.67L23.57 8.67L23.45 8.83L23.31 8.82L23.31 8.82Q23.23 8.82 23.16 8.84L23.16 8.84L23.16 8.84Q23.09 8.86 23.02 8.89L23.02 8.89L23.02 8.89Q22.97 8.91 22.91 8.93L22.91 8.93L22.91 8.93Q22.86 8.96 22.79 8.97L22.79 8.97L22.79 8.97Q22.67 8.97 22.59 8.96L22.59 8.96L22.59 8.96Q22.52 8.96 22.44 8.96ZM24.27 14.57L24.27 14.57L24.27 14.57Q24.34 14.98 24.22 15.22L24.22 15.22L24.22 15.22Q24.10 15.45 23.89 15.57L23.89 15.57L23.89 15.57Q23.68 15.68 23.41 15.70L23.41 15.70L23.41 15.70Q23.13 15.71 22.89 15.67L22.89 15.67L22.89 15.67Q22.75 15.48 22.64 15.19L22.64 15.19L22.64 15.19Q22.53 14.90 22.44 14.59L22.44 14.59L22.44 14.59Q22.34 14.29 22.26 13.99L22.26 13.99L22.26 13.99Q22.19 13.69 22.13 13.45L22.13 13.45L22.13 13.45Q22.20 13.29 22.22 13.08L22.22 13.08L22.22 13.08Q22.24 12.87 22.25 12.65L22.25 12.65L22.25 12.65Q22.26 12.43 22.26 12.20L22.26 12.20L22.26 12.20Q22.27 11.98 22.30 11.77L22.30 11.77L22.30 11.77Q22.39 11.20 22.58 10.68L22.58 10.68L22.58 10.68Q22.76 10.16 22.87 9.60L22.87 9.60L22.87 9.60Q22.90 9.47 22.85 9.37L22.85 9.37L22.85 9.37Q22.80 9.26 22.83 9.16L22.83 9.16L22.83 9.16Q22.85 9.11 22.91 9.08L22.91 9.08L22.91 9.08Q22.98 9.06 23.00 9.00L23.00 9.00L23.00 9.00Q23.04 8.85 23.02 8.75L23.02 8.75L23.02 8.75Q23.00 8.65 23.06 8.52L23.06 8.52L23.06 8.52Q23.13 8.41 23.24 8.20L23.24 8.20L23.24 8.20Q23.34 7.98 23.31 7.75L23.31 7.75L23.31 7.75Q23.43 7.67 23.54 7.56L23.54 7.56L23.54 7.56Q23.65 7.45 23.77 7.36L23.77 7.36L23.77 7.36Q23.88 7.27 24.03 7.21L24.03 7.21L24.03 7.21Q24.17 7.14 24.38 7.14L24.38 7.14L24.38 7.14Q24.49 7.27 24.52 7.44L24.52 7.44L24.52 7.44Q24.55 7.60 24.59 7.77L24.59 7.77L24.59 7.77Q24.62 7.93 24.69 8.07L24.69 8.07L24.69 8.07Q24.76 8.22 24.92 8.30L24.92 8.30L24.92 8.30Q24.92 8.41 24.92 8.57L24.92 8.57L24.92 8.57Q24.92 8.74 24.94 8.89L24.94 8.89L24.94 8.89Q24.95 9.05 25.00 9.18L25.00 9.18L25.00 9.18Q25.05 9.31 25.16 9.35L25.16 9.35L25.16 9.35Q24.91 10.01 24.70 10.65L24.70 10.65L24.70 10.65Q24.49 11.29 24.35 11.94L24.35 11.94L24.35 11.94Q24.21 12.59 24.18 13.25L24.18 13.25L24.18 13.25Q24.14 13.90 24.27 14.57ZM33.48 7.83L33.48 7.83L33.48 7.83Q33.50 7.93 33.49 7.98L33.49 7.98L33.49 7.98Q33.48 8.03 33.48 8.07L33.48 8.07L33.48 8.07Q33.47 8.11 33.47 8.16L33.47 8.16L33.47 8.16Q33.47 8.20 33.50 8.30L33.50 8.30L33.50 8.30Q33.21 8.76 32.83 8.93L32.83 8.93L32.83 8.93Q32.46 9.11 32.02 9.18L32.02 9.18L32.02 9.18Q31.58 9.26 31.12 9.34L31.12 9.34L31.12 9.34Q30.67 9.42 30.21 9.69L30.21 9.69L30.21 9.69Q30.04 9.63 29.89 9.69L29.89 9.69L29.89 9.69Q29.75 9.76 29.48 9.73L29.48 9.73L29.48 9.73Q29.39 9.82 29.27 9.85L29.27 9.85L29.27 9.85Q29.15 9.88 29.03 9.93L29.03 9.93L29.03 9.93Q29.08 10.05 29.07 10.18L29.07 10.18L29.07 10.18Q29.07 10.31 29.11 10.39L29.11 10.39L29.11 10.39Q29.59 10.43 30.17 10.38L30.17 10.38L30.17 10.38Q30.75 10.32 31.31 10.31L31.31 10.31L31.31 10.31Q31.32 10.38 31.29 10.40L31.29 10.40L31.29 10.40Q31.27 10.42 31.28 10.47L31.28 10.47L31.28 10.47Q31.38 10.54 31.47 10.64L31.47 10.64L31.47 10.64Q31.57 10.75 31.66 10.84L31.66 10.84L31.66 10.84Q31.76 10.94 31.86 11.00L31.86 11.00L31.86 11.00Q31.96 11.06 32.10 11.05L32.10 11.05L32.10 11.05Q32.16 11.16 32.18 11.29L32.18 11.29L32.18 11.29Q32.20 11.42 32.14 11.55L32.14 11.55L32.14 11.55Q31.92 11.70 31.71 11.86L31.71 11.86L31.71 11.86Q31.49 12.02 31.25 12.14L31.25 12.14L31.25 12.14Q31.01 12.26 30.74 12.34L30.74 12.34L30.74 12.34Q30.47 12.41 30.15 12.40L30.15 12.40L30.15 12.40Q30.08 12.40 30.04 12.40L30.04 12.40L30.04 12.40Q30.01 12.40 29.96 12.36L29.96 12.36L29.96 12.36Q29.85 12.43 29.65 12.40L29.65 12.40L29.65 12.40Q29.45 12.37 29.34 12.44L29.34 12.44L29.34 12.44Q29.19 12.37 28.98 12.38L28.98 12.38L28.98 12.38Q28.77 12.39 28.60 12.33L28.60 12.33L28.60 12.33Q28.38 12.62 28.21 12.95L28.21 12.95L28.21 12.95Q28.03 13.28 27.89 13.64L27.89 13.64L27.89 13.64Q28.36 13.71 28.66 13.70L28.66 13.70L28.66 13.70Q28.97 13.69 29.24 13.65L29.24 13.65L29.24 13.65Q29.52 13.62 29.80 13.58L29.80 13.58L29.80 13.58Q30.09 13.55 30.53 13.56L30.53 13.56L30.53 13.56Q30.80 13.41 31.18 13.36L31.18 13.36L31.18 13.36Q31.55 13.32 31.87 13.21L31.87 13.21L31.87 13.21Q31.98 13.25 32.06 13.35L32.06 13.35L32.06 13.35Q32.14 13.45 32.22 13.54L32.22 13.54L32.22 13.54Q32.29 13.63 32.38 13.70L32.38 13.70L32.38 13.70Q32.46 13.77 32.58 13.75L32.58 13.75L32.58 13.75Q32.63 13.81 32.66 13.88L32.66 13.88L32.66 13.88Q32.68 13.96 32.69 14.03L32.69 14.03L32.69 14.03Q32.70 14.10 32.74 14.14L32.74 14.14L32.74 14.14Q32.77 14.19 32.85 14.18L32.85 14.18L32.85 14.18Q32.65 14.63 32.38 14.87L32.38 14.87L32.38 14.87Q32.12 15.11 31.77 15.23L31.77 15.23L31.77 15.23Q31.43 15.35 31.01 15.42L31.01 15.42L31.01 15.42Q30.60 15.49 30.09 15.59L30.09 15.59L30.09 15.59Q29.97 15.61 29.89 15.58L29.89 15.58L29.89 15.58Q29.80 15.54 29.70 15.54L29.70 15.54L29.70 15.54Q29.38 15.61 28.94 15.67L28.94 15.67L28.94 15.67Q28.51 15.72 28.05 15.71L28.05 15.71L28.05 15.71Q27.60 15.70 27.19 15.59L27.19 15.59L27.19 15.59Q26.78 15.49 26.52 15.23L26.52 15.23L26.52 15.23Q26.41 15.13 26.38 15.00L26.38 15.00L26.38 15.00Q26.35 14.88 26.20 14.81L26.20 14.81L26.20 14.81Q26.18 14.63 26.14 14.41L26.14 14.41L26.14 14.41Q26.10 14.19 26.06 13.95L26.06 13.95L26.06 13.95Q26.02 13.71 26.00 13.48L26.00 13.48L26.00 13.48Q25.98 13.25 26.02 13.06L26.02 13.06L26.02 13.06Q26.06 12.85 26.19 12.69L26.19 12.69L26.19 12.69Q26.32 12.52 26.28 12.33L26.28 12.33L26.28 12.33Q26.35 12.32 26.36 12.26L26.36 12.26L26.36 12.26Q26.37 12.20 26.47 12.21L26.47 12.21L26.47 12.21Q26.55 11.96 26.65 11.74L26.65 11.74L26.65 11.74Q26.74 11.53 26.84 11.32L26.84 11.32L26.84 11.32Q26.95 11.12 27.05 10.90L27.05 10.90L27.05 10.90Q27.15 10.69 27.25 10.43L27.25 10.43L27.25 10.43Q27.06 10.25 26.97 10.04L26.97 10.04L26.97 10.04Q26.88 9.83 26.84 9.62L26.84 9.62L26.84 9.62Q26.80 9.41 26.77 9.18L26.77 9.18L26.77 9.18Q26.74 8.96 26.67 8.72L26.67 8.72L26.67 8.72Q26.81 8.52 27.01 8.39L27.01 8.39L27.01 8.39Q27.21 8.26 27.44 8.18L27.44 8.18L27.44 8.18Q27.67 8.09 27.95 8.04L27.95 8.04L27.95 8.04Q28.22 7.98 28.52 7.92L28.52 7.92L28.52 7.92Q29.07 7.74 29.50 7.64L29.50 7.64L29.50 7.64Q29.93 7.55 30.34 7.49L30.34 7.49L30.34 7.49Q30.76 7.42 31.21 7.37L31.21 7.37L31.21 7.37Q31.66 7.31 32.24 7.21L32.24 7.21L32.24 7.21Q32.36 7.33 32.47 7.33L32.47 7.33L32.47 7.33Q32.53 7.21 32.60 7.25L32.60 7.25L32.60 7.25Q32.68 7.30 32.66 7.18L32.66 7.18L32.66 7.18Q32.80 7.41 33.01 7.57L33.01 7.57L33.01 7.57Q33.22 7.72 33.48 7.83Z"></path></g><!----><!----></svg>